<svg width="35" height="35" viewBox="0 0 35 35" fill="none" xmlns="http://www.w3.org/2000/svg">
<path d="M15.4133 0C6.91462 0 0 6.91462 0 15.4133C0 23.9124 6.91462 30.8265 15.4133 30.8265C23.9124 30.8265 30.8265 23.9124 30.8265 15.4133C30.8265 6.91462 23.9124 0 15.4133 0ZM15.4133 27.9811C8.48347 27.9811 2.84553 22.3431 2.84553 15.4133C2.84553 8.48354 8.48347 2.84553 15.4133 2.84553C22.3431 2.84553 27.981 8.48347 27.981 15.4133C27.981 22.3431 22.3431 27.9811 15.4133 27.9811Z" fill="#C4C4C4"/>
<path d="M34.5831 32.5714L26.4259 24.4142C25.8701 23.8584 24.9699 23.8584 24.4141 24.4142C23.8582 24.9695 23.8582 25.8707 24.4141 26.426L32.5713 34.5832C32.8491 34.8611 33.2129 35.0001 33.5772 35.0001C33.9409 35.0001 34.3051 34.8611 34.5831 34.5832C35.1389 34.0278 35.1389 33.1267 34.5831 32.5714Z" fill="#C4C4C4"/>
</svg>
