<svg width="48" height="42" viewBox="0 0 48 42" fill="none" xmlns="http://www.w3.org/2000/svg">
<path d="M13.188 38.9025H14.3092V41.895H14.9499V38.9025H16.0712V38.3775H13.188V38.9025ZM4.64516 40.32H6.46051V39.8475H4.64516V38.9025H6.62069V38.3775H4.00445V41.895H6.62069V41.37H4.64516V40.32ZM2.24249 39.795H0.640712V38.3775H0V41.895H0.640712V40.32H2.29588V41.895H2.9366V38.3775H2.24249V39.795ZM8.38265 38.3775L6.99444 41.895H7.63515L8.0089 40.95H9.4505L9.82425 41.895H10.465L9.07675 38.3775H8.38265ZM8.16908 40.53L8.703 39.0075L9.23693 40.53H8.16908ZM11.6396 38.3775H10.9989V41.895H13.4549V41.37H11.6396V38.3775ZM19.0078 39.795H17.3526V38.3775H16.7119V41.895H17.3526V40.32H19.0078V41.895H19.6485V38.3775H19.0078V39.795ZM41.4861 38.9025H42.6073V41.895H43.2481V38.9025H44.3693V38.3775H41.4861V38.9025ZM24.8276 40.215H24.347C24.347 40.425 24.2937 40.5825 24.2403 40.6875L23.7063 40.0575C24.0801 39.9 24.347 39.585 24.347 39.165C24.347 38.5875 23.9199 38.325 23.4394 38.325C22.9588 38.325 22.5317 38.6925 22.5317 39.165C22.5317 39.48 22.6919 39.69 22.9054 39.9525C22.4783 40.1625 22.1046 40.4775 22.1046 40.95C22.1046 41.6325 22.5851 42 23.2258 42C23.6529 42 23.9733 41.8425 24.2403 41.5275L24.5606 41.895H25.2547L24.5606 41.1075C24.7208 40.845 24.8276 40.53 24.8276 40.215ZM23.4394 38.745C23.6529 38.745 23.8131 38.9025 23.8131 39.165C23.8131 39.4275 23.5996 39.585 23.386 39.7425C23.2792 39.585 23.0656 39.375 23.0656 39.165C23.0656 38.9025 23.2258 38.745 23.4394 38.745ZM23.2258 41.5275C22.9054 41.5275 22.6385 41.3175 22.6385 40.95C22.6385 40.53 22.9588 40.425 23.1724 40.2675L23.8665 41.16C23.8131 41.3175 23.6529 41.5275 23.2258 41.5275ZM47.2525 38.3775L46.3448 39.9525L45.3838 38.3775H44.6897L46.0245 40.53V41.9475H46.6652V40.53L48 38.3775H47.2525ZM40.3115 40.425C40.3115 40.8975 40.3115 41.4225 39.4572 41.4225C38.6563 41.4225 38.6029 40.8975 38.6029 40.425V38.3775H37.9622V40.635C37.9622 41.5275 38.5495 42 39.4572 42C40.3648 42 40.8988 41.5275 40.8988 40.635V38.3775H40.2581V40.425H40.3115ZM29.6863 40.005C30.0067 39.8475 30.2202 39.585 30.2202 39.27C30.2202 38.6925 29.7931 38.3775 29.1524 38.3775H27.3904V41.895H29.0456C29.9533 41.895 30.3804 41.475 30.3804 40.8975C30.327 40.4775 30.1135 40.11 29.6863 40.005ZM28.0311 38.9025H29.0456C29.366 38.9025 29.5795 39.06 29.5795 39.375C29.5795 39.69 29.366 39.8475 29.0456 39.8475H28.0311V38.9025ZM29.099 41.4225H27.9778V40.32H29.099C29.4727 40.32 29.6863 40.53 29.6863 40.845C29.7397 41.2125 29.5261 41.4225 29.099 41.4225ZM35.5061 38.3775L34.1179 41.895H34.7586L35.1324 40.95H36.574L36.8943 41.895H37.535L36.1468 38.3775H35.5061ZM35.2925 40.53L35.8265 39.0075L36.3604 40.53H35.2925ZM31.7686 40.32H33.584V39.8475H31.7686V38.9025H33.7442V38.3775H31.1813V41.895H33.7976V41.37H31.822V40.32H31.7686ZM30.5406 27.8775H13.6151V0H9.77085V31.185H32.0356L30.5406 27.8775ZM20.6096 17.1675H29.099L35.2392 31.185H39.2436L32.7831 16.2225C36.3604 15.2775 38.4961 12.0225 38.4961 8.505C38.4961 5.985 37.3215 3.465 35.2392 1.9425C33.2102 0.42 30.7542 0.105 28.2981 0.105H16.8187V25.095H20.663V17.1675H20.6096ZM20.6096 3.3075H28.2981C29.8999 3.3075 31.1813 3.36 32.5161 4.2525C34.0111 5.1975 34.6518 6.6675 34.6518 8.4525C34.6518 9.9225 34.1713 11.34 33.1034 12.39C31.6085 13.9125 29.8999 14.07 27.8176 14.07H20.6096V3.3075Z" fill="#809580"/>
</svg>
